<?xml version="1.0" ?><svg data-name="Layer 1" id="Layer_1" viewBox="0 0 512 512" xmlns="http://www.w3.org/2000/svg"><path d="M350.58,233.47c17.67,0,27-9.85,27.35-10.27a5.15,5.15,0,0,0-7.55-7c-.27.28-6.84,7-19.8,7s-19.52-6.7-19.76-6.95a5.15,5.15,0,1,0-7.57,7C323.63,223.62,332.91,233.47,350.58,233.47Z"/><path d="M183.21,320.37c-26.8,0-47.8,12-47.8,27.26s21,27.26,47.8,27.26,47.8-12,47.8-27.26S210,320.37,183.21,320.37Zm0,44.22c-22.1,0-37.5-8.94-37.5-17s15.4-16.95,37.5-16.95,37.5,8.93,37.5,16.95S205.31,364.59,183.21,364.59Z"/><path d="M467.5,272.55a5.16,5.16,0,0,0-2.89-3.22c-25.05-10.73-24.81-28.9-24.17-77.47.11-8.07.22-16.9.22-26.56,0-26.59-8.76-48.9-26.05-66.29A90.19,90.19,0,0,0,350.1,72.36h0A90.19,90.19,0,0,0,285.58,99c-17.29,17.4-26.05,39.7-26.05,66.29,0,9.65.11,18.48.22,26.55.49,37.64.75,57.9-11.7,69.71a28.55,28.55,0,0,0-17.41-5.94H61.06a16.78,16.78,0,0,0-15.33,23.61l64,143.5a28.55,28.55,0,0,0,26.06,16.91H398.7a42.07,42.07,0,0,0,42-42V331.1a74.31,74.31,0,0,0-8.4-34.43c23.38-2.74,34.1-19.05,34.59-19.83A5.11,5.11,0,0,0,467.5,272.55ZM296.68,429.34H135.78a18.26,18.26,0,0,1-16.65-10.8L55.14,275a6.48,6.48,0,0,1,5.92-9.12H230.64A18.21,18.21,0,0,1,244,271.77l.14.14a18.19,18.19,0,0,1,3.15,4.81l64,143.5a6.48,6.48,0,0,1-5.91,9.12Zm25-232a5.14,5.14,0,0,0,5.15-5.15v-9.44c26.73-2.8,60.52-9.3,86.1-24.22v34.36a61.74,61.74,0,0,1-61.67,61.67h-1.35a61.74,61.74,0,0,1-61.67-61.67v-8.07h.2c5.84,0,15.84-.18,28.09-1.13v8.5A5.14,5.14,0,0,0,321.68,197.37Zm54.43,70-26.34,37.18-24.64-36.8a64.54,64.54,0,0,1,12.34-1.2h28.37A65.49,65.49,0,0,1,376.11,267.33Zm-61.41,3.33,30.66,45.8a5.15,5.15,0,0,0,4.22,2.28h.07a5.13,5.13,0,0,0,4.2-2.17l33-46.54a64.68,64.68,0,0,1,43.6,61.07v13.83H401.27v-19.4a5.15,5.15,0,1,0-10.3,0v63.9H308.83L275.18,314A64.57,64.57,0,0,1,314.7,270.66Zm84,158.68H320.85a16.7,16.7,0,0,0-.16-13.31l-7.26-16.29h82.69a5.16,5.16,0,0,0,5.15-5.16V355.23h29.16v42.38A31.76,31.76,0,0,1,398.7,429.34Zm27.46-142.58A75.1,75.1,0,0,0,382,258a72.05,72.05,0,0,0,41.19-65.05V149.11a5.15,5.15,0,0,0-8.14-4.19c-44.49,31.75-131,29.57-131.84,29.56a5,5,0,0,0-3.75,1.46,5.14,5.14,0,0,0-1.56,3.69v13.29a72.07,72.07,0,0,0,41.92,65.39,75,75,0,0,0-50.73,42.09L256.7,272.53a27.17,27.17,0,0,0-1.75-3.29c15.92-14.72,15.62-37.86,15.1-77.52-.1-8-.22-16.81-.22-26.42,0-23.77,7.76-43.63,23.06-59a81.11,81.11,0,0,1,114.41,0c15.3,15.4,23.06,35.26,23.06,59,0,9.61-.12,18.39-.22,26.43-.6,45.54-.93,70,24.2,84C449.61,280.28,440.39,286.61,426.16,286.76Z"/><path d="M379.49,197.37a5.14,5.14,0,0,0,5.15-5.15V179.9a5.15,5.15,0,1,0-10.3,0v12.32A5.15,5.15,0,0,0,379.49,197.37Z"/></svg>